<svg xmlns="http://www.w3.org/2000/svg" width="37" height="16" viewBox="0 0 37 16" role="img" aria-label="DV">
  <g><g transform="translate(2.2 1.45) scale(.5)"><path fill-rule="evenodd" clip-rule="evenodd" d="M0 4V20H24V4H0ZM10 12C10 9.79086 8.20914 8 6 8H4V16H6C8.20914 16 10 14.2091 10 12ZM18 16H20V8H18C15.7909 8 14 9.79086 14 12C14 14.2091 15.7909 16 18 16Z" fill="#FFFFFF"/></g></g>
  <path fill="#000000" opacity=".22" d="M18.83 11.98L18.83 11.98L17.40 11.98L17.41 11.08L18.83 11.08Q19.59 11.08 20.06 10.78Q20.53 10.49 20.76 9.92Q20.98 9.35 20.98 8.50L20.98 8.50L20.98 7.07Q20.98 6.40 20.85 5.91Q20.73 5.43 20.47 5.12Q20.22 4.81 19.83 4.65Q19.45 4.50 18.93 4.50L18.93 4.50L17.37 4.50L17.37 3.59L18.93 3.59Q19.64 3.59 20.21 3.81Q20.78 4.03 21.19 4.48Q21.60 4.92 21.81 5.57Q22.03 6.22 22.03 7.08L22.03 7.08L22.03 8.50Q22.03 9.36 21.81 10.01Q21.60 10.66 21.18 11.10Q20.77 11.54 20.18 11.76Q19.59 11.98 18.83 11.98ZM16.93 3.59L17.99 3.59L17.99 11.98L16.93 11.98L16.93 3.59ZM25.72 11.98L25.97 10.71L27.99 3.59L29.14 3.59L26.53 11.98L25.72 11.98ZM23.01 3.59L24.16 3.59L26.16 10.71L26.42 11.98L25.61 11.98L23.01 3.59Z"/>
  <path fill="#FFFFFF" stroke="#FFFFFF" stroke-width=".3" stroke-linejoin="round" paint-order="stroke fill" d="M18.83 11.70L18.83 11.70L17.40 11.70L17.41 10.80L18.83 10.80Q19.59 10.80 20.06 10.50Q20.53 10.21 20.76 9.64Q20.98 9.07 20.98 8.22L20.98 8.22L20.98 6.79Q20.98 6.12 20.85 5.63Q20.73 5.15 20.47 4.84Q20.22 4.53 19.83 4.37Q19.45 4.22 18.93 4.22L18.93 4.22L17.37 4.22L17.37 3.31L18.93 3.31Q19.64 3.31 20.21 3.53Q20.78 3.75 21.19 4.20Q21.60 4.64 21.81 5.29Q22.03 5.94 22.03 6.80L22.03 6.80L22.03 8.22Q22.03 9.08 21.81 9.73Q21.60 10.38 21.18 10.82Q20.77 11.26 20.18 11.48Q19.59 11.70 18.83 11.70ZM16.93 3.31L17.99 3.31L17.99 11.70L16.93 11.70L16.93 3.31ZM25.72 11.70L25.97 10.43L27.99 3.31L29.14 3.31L26.53 11.70L25.72 11.70ZM23.01 3.31L24.16 3.31L26.16 10.43L26.42 11.70L25.61 11.70L23.01 3.31Z"/>
</svg>
