<svg xmlns="http://www.w3.org/2000/svg" width="39" height="16" viewBox="0 0 39 16" role="img" aria-label="CRAVE">
  <path d="M2.2 4.2v7.6L7.8 8z" fill="#F2F5F8"/>
  <path fill="#F2F5F8" stroke="#F2F5F8" stroke-width="0.32" stroke-linejoin="round" paint-order="stroke fill" d="M14.47 9.12L14.47 9.12L15.38 9.12Q15.35 9.86 15.08 10.39Q14.82 10.93 14.32 11.21Q13.82 11.50 13.07 11.50L13.07 11.50Q12.53 11.50 12.10 11.29Q11.66 11.07 11.35 10.68Q11.05 10.28 10.88 9.72Q10.72 9.17 10.72 8.47L10.72 8.47L10.72 7.14Q10.72 6.45 10.89 5.90Q11.05 5.34 11.36 4.94Q11.68 4.55 12.13 4.33Q12.58 4.12 13.15 4.12L13.15 4.12Q13.85 4.12 14.34 4.40Q14.82 4.68 15.09 5.21Q15.35 5.75 15.38 6.52L15.38 6.52L14.47 6.52Q14.44 5.96 14.30 5.60Q14.15 5.24 13.87 5.07Q13.60 4.90 13.15 4.90L13.15 4.90Q12.76 4.90 12.47 5.06Q12.18 5.22 12.00 5.51Q11.81 5.80 11.72 6.21Q11.63 6.63 11.63 7.13L11.63 7.13L11.63 8.47Q11.63 8.94 11.70 9.35Q11.78 9.76 11.95 10.07Q12.12 10.38 12.40 10.55Q12.67 10.72 13.07 10.72L13.07 10.72Q13.57 10.72 13.86 10.56Q14.15 10.40 14.29 10.04Q14.43 9.69 14.47 9.12ZM16.61 11.40L16.61 4.22L18.62 4.22Q19.32 4.22 19.79 4.47Q20.27 4.71 20.51 5.19Q20.76 5.67 20.76 6.37L20.76 6.37Q20.76 6.87 20.59 7.27Q20.43 7.68 20.12 7.97Q19.81 8.25 19.37 8.39L19.37 8.39L19.12 8.49L17.33 8.49L17.32 7.72L18.61 7.72Q19.02 7.72 19.30 7.54Q19.57 7.36 19.71 7.05Q19.85 6.74 19.85 6.37L19.85 6.37Q19.85 5.96 19.73 5.65Q19.60 5.34 19.33 5.17Q19.06 5.00 18.62 5.00L18.62 5.00L17.52 5.00L17.52 11.40L16.61 11.40ZM21.03 11.40L20.06 11.40L18.63 8.15L19.57 8.14L21.03 11.34L21.03 11.40ZM24.30 4.22L24.29 4.86L22.33 11.40L21.40 11.40L23.72 4.22L24.30 4.22ZM26.81 11.40L25.88 11.40L23.92 4.86L23.91 4.22L24.49 4.22L26.81 11.40ZM22.42 8.74L25.88 8.74L25.88 9.52L22.42 9.52L22.42 8.74ZM29.55 11.40L29.76 10.31L31.49 4.22L32.47 4.22L30.24 11.40L29.55 11.40ZM27.23 4.22L28.21 4.22L29.92 10.31L30.15 11.40L29.46 11.40L27.23 4.22ZM34.19 10.63L37.31 10.63L37.31 11.40L34.19 11.40L34.19 10.63ZM33.45 4.22L34.36 4.22L34.36 11.40L33.45 11.40L33.45 4.22ZM34.19 7.31L36.89 7.31L36.89 8.08L34.19 8.08L34.19 7.31ZM34.19 4.22L37.26 4.22L37.26 5.00L34.19 5.00L34.19 4.22Z"/>
</svg>
