<svg xmlns="http://www.w3.org/2000/svg" width="35" height="16" viewBox="0 0 35 16" role="img" aria-label="HULU">
  
  <path fill="#FFFFFF" opacity=".16" d="M6.56 6.78L10.09 6.78L10.09 7.66L6.56 7.66L6.56 6.78ZM5.68 3.28L6.70 3.28L6.70 11.42L5.68 11.42L5.68 3.28ZM9.97 3.28L11.00 3.28L11.00 11.42L9.97 11.42L9.97 3.28ZM16.61 9.01L16.61 3.28L17.63 3.28L17.63 9.01Q17.63 9.93 17.28 10.48Q16.93 11.03 16.36 11.28Q15.78 11.53 15.12 11.53L15.12 11.53Q14.42 11.53 13.85 11.28Q13.29 11.03 12.96 10.48Q12.62 9.93 12.62 9.01L12.62 9.01L12.62 3.28L13.65 3.28L13.65 9.01Q13.65 9.65 13.83 10.01Q14.01 10.36 14.34 10.51Q14.68 10.65 15.12 10.65L15.12 10.65Q15.58 10.65 15.91 10.51Q16.24 10.36 16.42 10.01Q16.61 9.65 16.61 9.01L16.61 9.01ZM20.05 10.54L23.43 10.54L23.43 11.42L20.05 11.42L20.05 10.54ZM19.21 3.28L20.23 3.28L20.23 11.42L19.21 11.42L19.21 3.28ZM28.48 9.01L28.48 3.28L29.51 3.28L29.51 9.01Q29.51 9.93 29.16 10.48Q28.80 11.03 28.23 11.28Q27.66 11.53 27.00 11.53L27.00 11.53Q26.29 11.53 25.73 11.28Q25.17 11.03 24.83 10.48Q24.50 9.93 24.50 9.01L24.50 9.01L24.50 3.28L25.52 3.28L25.52 9.01Q25.52 9.65 25.70 10.01Q25.89 10.36 26.22 10.51Q26.55 10.65 27.00 10.65L27.00 10.65Q27.45 10.65 27.78 10.51Q28.12 10.36 28.30 10.01Q28.48 9.65 28.48 9.01L28.48 9.01Z"/>
  <path fill="#042B16" stroke="#042B16" stroke-width=".3" stroke-linejoin="round" paint-order="stroke fill" d="M6.56 7.06L10.09 7.06L10.09 7.94L6.56 7.94L6.56 7.06ZM5.68 3.56L6.70 3.56L6.70 11.70L5.68 11.70L5.68 3.56ZM9.97 3.56L11.00 3.56L11.00 11.70L9.97 11.70L9.97 3.56ZM16.61 9.29L16.61 3.56L17.63 3.56L17.63 9.29Q17.63 10.21 17.28 10.76Q16.93 11.31 16.36 11.56Q15.78 11.81 15.12 11.81L15.12 11.81Q14.42 11.81 13.85 11.56Q13.29 11.31 12.96 10.76Q12.62 10.21 12.62 9.29L12.62 9.29L12.62 3.56L13.65 3.56L13.65 9.29Q13.65 9.93 13.83 10.29Q14.01 10.64 14.34 10.79Q14.68 10.93 15.12 10.93L15.12 10.93Q15.58 10.93 15.91 10.79Q16.24 10.64 16.42 10.29Q16.61 9.93 16.61 9.29L16.61 9.29ZM20.05 10.82L23.43 10.82L23.43 11.70L20.05 11.70L20.05 10.82ZM19.21 3.56L20.23 3.56L20.23 11.70L19.21 11.70L19.21 3.56ZM28.48 9.29L28.48 3.56L29.51 3.56L29.51 9.29Q29.51 10.21 29.16 10.76Q28.80 11.31 28.23 11.56Q27.66 11.81 27.00 11.81L27.00 11.81Q26.29 11.81 25.73 11.56Q25.17 11.31 24.83 10.76Q24.50 10.21 24.50 9.29L24.50 9.29L24.50 3.56L25.52 3.56L25.52 9.29Q25.52 9.93 25.70 10.29Q25.89 10.64 26.22 10.79Q26.55 10.93 27.00 10.93L27.00 10.93Q27.45 10.93 27.78 10.79Q28.12 10.64 28.30 10.29Q28.48 9.93 28.48 9.29L28.48 9.29Z"/>
</svg>
